<?xml version="1.0" standalone="no"?>
<!DOCTYPE svg PUBLIC "-//W3C//DTD SVG 20010904//EN"
 "http://www.w3.org/TR/2001/REC-SVG-20010904/DTD/svg10.dtd">
<svg version="1.0" xmlns="http://www.w3.org/2000/svg"
 width="260.000000pt" height="260.000000pt" viewBox="0 0 260.000000 260.000000"
 preserveAspectRatio="xMidYMid meet">
<metadata>
Created by potrace 1.14, written by Peter Selinger 2001-2017
</metadata>
<g transform="translate(0.000000,260.000000) scale(0.100000,-0.100000)"
fill="#000000" stroke="none">
<path d="M1115 2589 c-682 -106 -1169 -722 -1105 -1398 51 -544 417 -987 940
-1137 50 -14 93 -24 95 -22 2 2 9 33 15 68 19 115 24 365 10 530 -8 85 -14
168 -14 185 l-1 29 315 118 c173 64 338 126 366 137 l52 19 55 -81 c91 -133
217 -284 338 -405 63 -63 121 -118 131 -123 14 -7 26 5 68 68 93 139 168 321
201 488 21 106 19 388 -4 495 -55 254 -177 481 -356 661 -177 176 -404 300
-651 354 -89 19 -366 28 -455 14z m-109 -156 c12 -8 29 -29 37 -46 16 -35 344
-933 349 -956 2 -10 -33 -26 -114 -55 -64 -22 -118 -39 -121 -36 -13 14 -357
974 -357 995 0 96 122 153 206 98z m-395 -771 c59 -122 169 -200 322 -227 76
-13 77 -12 -35 -35 -120 -24 -227 -101 -277 -197 -24 -48 -51 -150 -51 -194 0
-47 -7 -33 -24 50 -44 211 -171 330 -386 360 l-55 8 40 7 c150 26 252 76 308
149 44 58 76 136 89 221 l12 79 13 -78 c7 -43 27 -107 44 -143z m1302 -49 c22
-23 52 -40 83 -48 l47 -12 -46 -12 c-64 -16 -104 -54 -127 -121 -12 -36 -19
-47 -19 -31 -1 41 -41 109 -75 130 -18 12 -50 24 -71 29 l-38 7 50 13 c66 17
109 62 125 130 l13 52 11 -51 c8 -36 22 -62 47 -86z m-427 -244 c32 -6 85 -25
117 -42 59 -31 161 -130 154 -150 -5 -15 -698 -268 -716 -262 -21 8 -9 146 18
217 43 111 159 208 281 234 71 16 76 16 146 3z m570 -203 c56 -56 44 -135 -26
-171 -39 -20 -69 -19 -106 4 -93 57 -52 201 58 201 32 0 47 -7 74 -34z m-1251
-501 c14 -13 25 -36 25 -50 0 -14 -11 -37 -25 -50 -40 -41 -92 -30 -114 24
-10 24 -10 34 3 59 25 49 73 56 111 17z m176 -160 c93 -49 89 -201 -6 -241
-44 -18 -79 -18 -115 1 -61 31 -94 108 -70 164 12 30 55 75 80 84 30 11 81 7
111 -8z"/>
<path d="M877 2338 c-16 -12 -3 -51 145 -455 127 -345 167 -443 180 -443 9 0
20 4 23 10 6 10 -316 900 -326 900 -3 0 -13 -6 -22 -12z"/>
<path d="M1197 1242 c-22 -25 -53 -91 -67 -141 -10 -37 -9 -46 6 -62 25 -28
35 -20 51 41 7 30 27 74 43 98 31 45 32 55 1 72 -14 7 -22 5 -34 -8z"/>
<path d="M2004 458 c24 -51 54 -114 66 -140 l23 -47 44 36 44 36 -93 94 c-129
131 -136 132 -84 21z"/>
<path d="M1613 480 c3 -14 25 -108 47 -210 23 -102 45 -188 49 -192 4 -4 31 2
61 13 100 38 103 18 -31 222 -66 100 -123 184 -126 187 -3 3 -3 -6 0 -20z"/>
<path d="M1269 243 c-2 -106 -3 -203 -3 -215 -1 -22 2 -23 79 -20 43 2 81 4
82 6 2 1 -33 97 -77 212 l-79 209 -2 -192z"/>
</g>
</svg>
